# Blender 4.1.1
# www.blender.org
mtllib goomba.mtl
o goomba
v -0.074676 0.258303 6.949379
v -0.041579 -13.241654 6.949381
v -0.041579 -13.241656 -6.550616
v -0.074676 0.258300 -6.550618
v 4.658367 -13.498308 1.951480
v 7.017485 -13.231528 8.319700
v -3.958899 -13.293231 4.141596
v -0.995294 -13.138000 2.184367
v 4.640401 -11.032833 2.492437
v 6.860723 -11.731605 4.191492
v 4.064019 -13.110248 10.170533
v -4.148004 -13.169756 6.756751
v -1.255153 -11.243483 8.568681
v -3.495896 -11.973100 4.395038
v -3.651237 -11.871673 6.543205
v 5.098954 -10.498933 4.005914
v 6.570298 -11.541986 8.207601
v 4.140610 -10.706511 9.403913
v -0.973605 -10.740597 7.342049
v -0.822901 -11.525705 2.591198
v -1.501834 -12.807268 9.189244
v -0.723703 -10.903756 3.886317
v 4.808535 -10.309314 8.022036
v 7.307909 -13.421145 4.303592
v -3.739629 -13.363338 -3.941867
v -2.973471 -12.025675 -6.288605
v 5.227722 -10.989134 -7.675111
v 4.421793 -11.081526 -0.785346
v -1.193214 -13.153020 -1.470038
v -0.931341 -11.556167 -1.889978
v 5.629230 -10.547640 -6.206278
v -0.234324 -11.476262 -7.848694
v -0.585176 -10.979116 -3.163295
v -3.223959 -12.054392 -4.147184
v -0.182211 -10.932919 -6.608170
v -0.376392 -13.059377 -8.452901
v 7.825088 -13.487010 -5.988754
v 5.271528 -13.417388 -8.363282
v 7.382013 -11.792833 -6.017909
v 5.160920 -10.601328 -2.202774
v 6.913703 -11.846520 -2.014389
v -3.434684 -13.328382 -6.548805
v 7.356778 -13.540695 -1.985250
v 4.313122 -13.527261 -0.170063
v 10.524306 5.404337 -2.747926
v 8.013334 -4.191155 -8.966516
v -7.784415 -4.009347 -9.370361
v -1.796681 -4.064501 -11.824602
v 3.689937 -2.060880 -12.467916
v 3.227528 5.715930 -10.536850
v 8.052017 5.458407 -7.666957
v 11.326008 -4.264317 -2.240324
v 8.257561 -4.284972 8.290171
v 11.692088 -2.236829 3.631420
v 9.980421 5.566929 3.147985
v 1.850214 -4.232643 12.184488
v 2.570774 5.421507 11.143939
v -3.040496 5.673736 10.974185
v -3.679577 -2.110490 12.823304
v 2.985105 -6.838949 6.163050
v -7.959802 -4.105990 9.326418
v -11.692088 -4.035652 4.040287
v -11.617955 -1.935881 -3.159807
v -9.729612 5.821398 -2.594410
v -7.287983 5.629151 -6.960980
v 7.804934 11.349612 -4.212143
v -2.298001 5.592031 -10.682366
v 2.099890 12.644657 -6.360100
v -3.805090 11.499502 -7.594651
v -5.870845 12.709444 -1.456594
v 6.279174 12.552579 2.083238
v -7.779244 5.555131 8.128545
v -1.755338 12.618704 6.870519
v 0.181515 14.600158 0.310580
v -9.989265 5.610967 2.309483
v -7.398050 11.475316 4.735936
v 7.298499 5.382621 8.322615
v -2.991174 -6.707704 -5.830836
v -5.744908 -6.726236 3.619642
v 5.738840 -6.820414 -3.287399
v 4.211966 11.325424 8.118444
vn 1.0000 0.0025 -0.0000
vn 0.2482 -0.5823 -0.7741
vn 0.7373 -0.5130 0.4396
vn -0.7369 -0.5231 -0.4281
vn -0.2859 -0.5427 -0.7898
vn 0.2510 0.6219 -0.7418
vn 0.8078 0.4743 -0.3500
vn 0.1239 -0.5122 0.8499
vn -0.7957 -0.4978 0.3450
vn -0.3815 0.6756 0.6308
vn -0.6826 0.6302 -0.3701
vn -0.7277 0.6498 0.2197
vn 0.2904 0.9324 -0.2150
vn 0.7505 0.5152 0.4138
vn 0.1446 0.6844 0.7147
vn -0.2510 0.9597 0.1261
vn -0.2774 0.6017 -0.7490
vn -0.4040 -0.4521 0.7952
vn -0.2162 0.9451 -0.2451
vn 0.2675 0.9477 0.1743
vn 0.7903 -0.5452 -0.2794
vn -0.8112 -0.5092 0.2875
vn -0.6673 0.6450 -0.3724
vn 0.2745 0.6609 -0.6985
vn 0.1194 0.6421 0.7572
vn -0.4270 -0.5195 0.7401
vn -0.4093 0.6281 0.6618
vn 0.3003 0.9410 -0.1557
vn -0.2335 0.6568 -0.7170
vn -0.2551 0.9534 0.1611
vn -0.7335 0.6492 0.2013
vn -0.2046 0.9563 -0.2089
vn -0.2403 -0.4734 -0.8474
vn 0.8004 -0.5269 -0.2860
vn 0.2759 -0.5360 -0.7979
vn 0.8188 0.4907 -0.2980
vn 0.2600 0.9372 0.2324
vn 0.7365 0.4891 0.4673
vn -0.7224 -0.5065 -0.4707
vn 0.7209 -0.5413 0.4327
vn 0.0897 -0.5596 0.8239
vn 0.9520 0.2412 -0.1883
vn 0.6123 -0.4949 -0.6166
vn -0.6101 -0.4183 -0.6729
vn -0.1762 -0.4920 -0.8526
vn 0.3013 -0.1748 -0.9374
vn 0.2884 0.3595 -0.8875
vn 0.6982 0.2533 -0.6696
vn 0.8477 -0.5067 -0.1568
vn 0.6460 -0.4946 0.5815
vn 0.9330 -0.1850 0.3085
vn 0.9033 0.3197 0.2860
vn 0.1849 -0.4983 0.8470
vn 0.2356 0.2386 0.9421
vn -0.2680 0.3357 0.9031
vn -0.2810 -0.1546 0.9472
vn 0.1274 -0.9659 0.2254
vn -0.5758 -0.4981 0.6484
vn -0.8672 -0.4505 0.2120
vn -0.9436 -0.1655 -0.2869
vn -0.8988 0.3450 -0.2704
vn -0.7292 0.2581 -0.6337
vn 0.6557 0.6763 -0.3357
vn -0.2948 0.2623 -0.9188
vn 0.1766 0.8146 -0.5525
vn -0.3768 0.6790 -0.6301
vn -0.5655 0.8087 -0.1619
vn 0.5814 0.7951 0.1723
vn -0.7020 0.2845 0.6529
vn -0.1615 0.8115 0.5616
vn 0.0090 0.9999 0.0064
vn -0.9476 0.2898 0.1348
vn -0.6535 0.6739 0.3446
vn 0.7179 0.2220 0.6598
vn -0.1400 -0.9648 -0.2226
vn -0.2366 -0.9655 0.1091
vn 0.2295 -0.9652 -0.1252
vn 0.3808 0.6760 0.6309
vt 0.037945 0.707570
vt 0.037945 0.952499
vt 0.233597 0.707570
vt 0.233597 0.952499
vt 0.000000 0.000000
vt 1.000000 1.000000
vt 1.000000 0.000000
vt 0.894862 0.322613
vt 0.891700 0.486888
vt 0.947431 0.318654
vt 0.420158 0.612568
vt 0.547826 0.542306
vt 0.464032 0.543295
vt 0.592885 0.487382
vt 0.416996 0.287481
vt 0.523320 0.287481
vt 0.551383 0.280554
vt 0.432411 0.543295
vt 0.962055 0.480950
vt 0.820553 0.454725
vt 0.820553 0.320633
vt 0.749407 0.488372
vt 0.746640 0.324592
vt 0.679447 0.483919
vt 0.210672 0.612568
vt 0.083004 0.542306
vt 0.198419 0.543295
vt 0.037945 0.487382
vt 0.107510 0.287481
vt 0.079447 0.280554
vt 0.820949 0.200396
vt 0.737549 0.221672
vt 0.166798 0.543295
vt 0.315415 0.487382
vt 0.213834 0.287481
vt 0.315415 0.280554
vt 0.904348 0.219693
vt 0.460474 0.097476
vt 0.452569 0.130134
vt 0.315415 0.097476
vt 0.178261 0.130134
vt 0.315415 0.047501
vt 0.170356 0.097476
vt 0.694466 0.322118
s 1
usemtl Material.087_goomba_grp.png
f 1/1/1 2/2/1 4/3/1
f 2/2/1 3/4/1 4/3/1
usemtl Material.056
f 5/5/2 11/6/8 8/7/5
f 11/5/8 21/6/18 8/7/5
f 24/5/21 6/6/3 5/7/2
f 6/5/3 11/6/8 5/7/2
f 21/5/18 12/6/9 8/7/5
f 12/5/9 7/6/4 8/7/5
f 10/5/7 24/6/21 9/7/6
f 24/5/21 5/6/2 9/7/6
f 17/5/14 10/6/7 23/7/20
f 10/5/7 16/6/13 23/7/20
f 6/5/3 17/6/14 11/7/8
f 17/5/14 18/6/15 11/7/8
f 15/5/12 12/6/9 13/7/10
f 12/5/9 21/6/18 13/7/10
f 14/5/11 15/6/12 22/7/19
f 15/5/12 19/6/16 22/7/19
f 7/5/4 14/6/11 8/7/5
f 14/5/11 20/6/17 8/7/5
f 22/5/19 16/6/13 20/7/17
f 16/5/13 9/6/6 20/7/17
f 23/5/20 19/6/16 18/7/15
f 19/5/16 13/6/10 18/7/15
f 10/5/7 9/6/6 16/7/13
f 17/5/14 23/6/20 18/7/15
f 15/5/12 13/6/10 19/7/16
f 14/5/11 22/6/19 20/7/17
f 9/5/6 5/6/2 20/7/17
f 5/5/2 8/6/5 20/7/17
f 13/5/10 21/6/18 18/7/15
f 21/5/18 11/6/8 18/7/15
f 19/5/16 23/6/20 22/7/19
f 23/5/20 16/6/13 22/7/19
f 14/5/11 7/6/4 15/7/12
f 7/5/4 12/6/9 15/7/12
f 17/5/14 6/6/3 10/7/7
f 6/5/3 24/6/21 10/7/7
usemtl Material.055
f 37/5/34 39/6/36 43/7/40
f 39/5/36 41/6/38 43/7/40
f 25/5/22 34/6/31 42/7/39
f 34/5/31 26/6/23 42/7/39
f 31/5/28 35/6/32 40/7/37
f 35/5/32 33/6/30 40/7/37
f 36/5/33 32/6/29 38/7/35
f 32/5/29 27/6/24 38/7/35
f 44/5/41 28/6/25 29/7/26
f 28/5/25 30/6/27 29/7/26
f 34/5/31 30/6/27 33/7/30
f 26/5/23 35/6/32 32/7/29
f 39/5/36 27/6/24 31/7/28
f 41/5/38 40/6/37 28/7/25
f 35/5/32 31/6/28 32/7/29
f 31/5/28 27/6/24 32/7/29
f 40/5/37 33/6/30 28/7/25
f 33/5/30 30/6/27 28/7/25
f 34/5/31 25/6/22 30/7/27
f 25/5/22 29/6/26 30/7/27
f 26/5/23 34/6/31 35/7/32
f 34/5/31 33/6/30 35/7/32
f 42/5/39 26/6/23 36/7/33
f 26/5/23 32/6/29 36/7/33
f 39/5/36 37/6/34 27/7/24
f 37/5/34 38/6/35 27/7/24
f 41/5/38 39/6/36 40/7/37
f 39/5/36 31/6/28 40/7/37
f 43/5/40 41/6/38 44/7/41
f 41/5/38 28/6/25 44/7/41
f 42/5/39 36/6/33 25/7/22
f 36/5/33 29/6/26 25/7/22
f 37/5/34 43/6/40 38/7/35
f 43/5/40 44/6/41 38/7/35
f 38/5/35 44/6/41 36/7/33
f 44/5/41 29/6/26 36/7/33
usemtl Material.054_goomba_grp.png
f 45/8/42 52/9/49 51/10/48
f 78/11/75 48/12/45 46/12/43
f 48/12/45 78/11/75 47/13/44
f 49/14/46 46/12/43 48/12/45
f 47/13/44 65/15/62 48/12/45
f 65/15/62 67/16/64 48/12/45
f 48/12/45 67/16/64 49/14/46
f 49/14/46 50/17/47 46/12/43
f 67/16/64 50/17/47 49/14/46
f 80/11/77 78/11/75 46/12/43
f 50/17/47 51/16/48 46/12/43
f 52/18/49 80/11/77 46/12/43
f 52/9/49 46/19/43 51/10/48
f 54/20/51 55/21/52 53/22/50
f 54/20/51 53/22/50 52/9/49
f 52/9/49 45/8/42 54/20/51
f 45/8/42 55/21/52 54/20/51
f 55/21/52 77/23/74 53/22/50
f 53/22/50 77/23/74 56/24/53
f 60/25/57 56/26/53 61/26/58
f 56/26/53 60/25/57 53/27/50
f 59/28/56 61/26/58 56/26/53
f 56/26/53 57/29/54 58/30/55
f 59/28/56 56/26/53 58/30/55
f 59/28/56 58/30/55 61/26/58
f 55/21/52 71/31/68 81/32/78
f 79/25/76 60/25/57 61/26/58
f 62/33/59 79/25/76 61/26/58
f 58/30/55 72/29/69 61/26/58
f 62/33/59 61/26/58 72/29/69
f 63/34/60 47/13/44 62/33/59
f 62/33/59 47/13/44 79/25/76
f 75/35/72 62/33/59 72/29/69
f 62/33/59 75/35/72 63/34/60
f 63/34/60 64/36/61 47/13/44
f 75/35/72 64/36/61 63/34/60
f 64/36/61 65/15/62 47/13/44
f 47/13/44 78/11/75 79/25/76
f 45/8/42 66/37/63 55/21/52
f 66/37/63 71/31/68 55/21/52
f 45/8/42 51/10/48 66/37/63
f 51/16/48 50/17/47 68/38/65
f 67/16/64 69/39/66 50/17/47
f 69/39/66 68/38/65 50/17/47
f 65/15/62 69/39/66 67/16/64
f 68/38/65 69/39/66 70/40/67
f 64/36/61 70/40/67 69/39/66
f 65/15/62 64/36/61 69/39/66
f 75/35/72 72/29/69 76/41/73
f 66/39/63 51/16/48 68/38/65
f 74/42/71 68/38/65 70/40/67
f 71/40/68 66/39/63 68/38/65
f 74/42/71 71/40/68 68/38/65
f 72/29/69 58/30/55 73/43/70
f 57/29/54 81/41/78 58/30/55
f 81/41/78 73/43/70 58/30/55
f 73/43/70 81/41/78 71/40/68
f 76/41/73 72/29/69 73/43/70
f 70/40/67 76/41/73 73/43/70
f 74/42/71 73/43/70 71/40/68
f 74/42/71 70/40/67 73/43/70
f 76/41/73 70/40/67 64/36/61
f 75/35/72 76/41/73 64/36/61
f 53/27/50 60/25/57 80/11/77
f 77/23/74 55/21/52 81/32/78
f 79/25/76 78/11/75 80/11/77
f 60/25/57 79/25/76 80/11/77
f 77/23/74 57/44/54 56/24/53
f 77/23/74 81/32/78 57/44/54
f 52/18/49 53/27/50 80/11/77
